<svg width="200" height="200" viewBox="0 0 200 200" fill="none" xmlns="http://www.w3.org/2000/svg">
<rect width="200" height="200" fill="white"/>
<path d="M102.993 106.951C103.243 102.279 105.544 98.1535 108.983 95.2399C112.614 92.2352 117.188 90.6057 121.902 90.6375C126.85 90.6375 131.404 92.3918 134.799 95.2399C138.242 98.1579 140.517 102.279 140.788 106.951C141.037 111.733 139.126 116.204 135.731 119.503C132.009 123.058 127.048 125.021 121.902 124.976C116.741 125.024 111.763 123.061 108.024 119.503C104.651 116.2 102.718 111.733 102.989 106.951H102.993ZM72.8942 116.384C72.9117 118.208 73.5067 121.76 74.3686 124.538C76.2568 130.508 79.43 135.992 83.6652 140.603C88.2014 145.594 93.7355 149.577 99.9091 152.293C106.638 155.25 113.913 156.757 121.263 156.716C128.615 156.738 135.89 155.21 142.612 152.231C148.781 149.485 154.312 145.488 158.856 140.494C163.075 135.855 166.239 130.358 168.131 124.381C169.954 118.588 170.452 112.459 169.588 106.448C168.773 100.691 166.753 95.1712 163.66 90.2481C160.809 85.6558 157.149 81.6181 152.858 78.331L109.022 44.6488C106.152 42.4395 101.322 42.4614 98.1767 44.6488C94.9874 46.8844 94.6199 50.5768 97.4417 52.9217L115.676 67.7569L60.0102 67.8269C55.4035 67.8269 51.0111 70.8324 50.1186 74.6648C49.2305 78.5366 52.3279 81.7521 57.1141 81.7696L85.3014 81.7302L34.8109 120.461C30.0729 124.083 28.5461 130.143 31.5342 133.953C34.5616 137.851 41.0145 137.851 45.8181 133.975L73.253 111.528C73.253 111.528 72.8461 114.559 72.8899 116.379L72.8942 116.384ZM143.409 126.52C137.739 132.291 129.829 135.567 121.267 135.567C112.697 135.589 104.765 132.352 99.1173 126.612C96.446 123.922 94.3854 120.689 93.0756 117.132C91.8769 113.789 91.4037 110.229 91.6873 106.689C91.9709 103.149 93.0049 99.7099 94.7205 96.6005C96.4333 93.5329 98.7137 90.8189 101.44 88.6032C106.935 84.1408 113.931 81.7259 121.267 81.704C128.578 81.704 135.577 84.0971 141.064 88.5594C143.803 90.7556 146.085 93.4664 147.783 96.5392C149.494 99.5885 150.544 102.983 150.841 106.496C151.159 110.072 150.685 113.673 149.455 117.044C148.136 120.597 146.076 123.829 143.413 126.525L143.409 126.52Z" fill="black"/>
</svg>
