<svg width="200" height="200" viewBox="0 0 200 200" fill="none" xmlns="http://www.w3.org/2000/svg">
<rect width="200" height="200" fill="white"/>
<path d="M161.5 128V62.6638L105.587 30V55.0863L127.489 67.9138C128.355 68.5 128.355 69.6637 127.489 69.9612L101.545 85.125C100.679 85.7113 99.8213 85.4138 99.2438 85.125L73.3 69.9612C72.4338 69.6637 72.4338 68.2113 73.3 67.9138L95.21 55.0863V30L39 62.6638V128L60.3325 115.461V89.7888C60.3325 88.9138 61.4787 88.3362 62.0562 88.625L88 103.789C88.8662 104.375 89.155 104.961 89.155 105.836V136.164C89.155 137.039 88 137.625 87.4225 137.336L65.5213 124.5L44.1888 137.039L100.101 170L156.022 137.336L134.69 124.789L112.798 137.625C111.931 138.211 111.065 137.625 111.065 136.461V106.125C111.065 105.25 111.643 104.375 112.22 104.086L138.164 88.9137C139.03 88.3362 139.887 88.9138 139.887 90.0863V115.75L161.5 128Z" fill="black"/>
</svg>
