<svg width="200" height="200" viewBox="0 0 200 200" fill="none" xmlns="http://www.w3.org/2000/svg">
<rect width="200" height="200" fill="white"/>
<path d="M30 30H170V170H30V30ZM158.528 136.61C157.509 130.224 153.348 124.858 141.012 119.849C136.719 117.834 131.951 116.442 130.52 113.207C129.991 111.278 129.913 110.236 130.256 109.092C131.134 105.328 135.599 104.2 139.099 105.242C141.378 105.942 143.478 107.692 144.792 110.5C150.82 106.557 150.82 106.557 155.028 103.936C153.449 101.493 152.663 100.428 151.613 99.3778C147.934 95.2711 143.034 93.1711 135.078 93.35L130.971 93.8711C127.028 94.8356 123.263 96.9433 120.992 99.7356C114.342 107.264 116.263 120.386 124.313 125.822C132.27 131.772 143.921 133.079 145.407 138.679C146.807 145.508 140.336 147.693 133.934 146.908C129.213 145.85 126.584 143.493 123.699 139.114L113.028 145.243C114.249 148.036 115.649 149.264 117.749 151.714C127.899 161.95 153.278 161.429 157.828 145.85C157.991 145.329 159.228 141.743 158.263 136.229L158.528 136.61ZM106.129 94.3456H93.0156C93.0156 105.647 92.9611 116.886 92.9611 128.21C92.9611 135.397 93.3267 141.992 92.1522 144.022C90.2311 148.043 85.2611 147.53 83.0133 146.814C80.7033 145.679 79.5289 144.1 78.1678 141.829C77.8022 141.222 77.53 140.693 77.4289 140.693L66.7889 147.258C68.57 150.937 71.1678 154.094 74.52 156.101C79.5056 159.08 86.2022 160.044 93.2178 158.473C97.7911 157.151 101.734 154.437 103.78 150.237C106.767 144.816 106.129 138.158 106.106 130.722C106.168 118.737 106.106 106.743 106.106 94.6722L106.129 94.3456Z" fill="black"/>
</svg>
