<svg width="200" height="200" viewBox="0 0 200 200" fill="none" xmlns="http://www.w3.org/2000/svg">
<rect width="200" height="200" fill="white"/>
<path fill-rule="evenodd" clip-rule="evenodd" d="M30 100C30 81.4348 37.375 63.6301 50.5025 50.5025C63.6301 37.375 81.4348 30 100 30C118.565 30 136.37 37.375 149.497 50.5025C162.625 63.6301 170 81.4348 170 100C170 118.565 162.625 136.37 149.497 149.497C136.37 162.625 118.565 170 100 170C81.4348 170 63.6301 162.625 50.5025 149.497C37.375 136.37 30 118.565 30 100ZM60.8467 84.7773C63.3941 78.2357 67.5398 72.4366 72.9054 67.9096C78.2709 63.3826 84.6851 60.2721 91.5622 58.8622C98.4392 57.4522 105.56 57.7878 112.274 59.8382C118.988 61.8886 125.081 65.5885 129.997 70.6L136.661 64.0667C130.452 57.7355 122.709 53.1203 114.186 50.6705C105.663 48.2207 96.6505 48.0198 88.0269 50.0873C79.4032 52.1549 71.462 56.4205 64.9765 62.4686C58.491 68.5168 53.6823 76.1414 51.0187 84.6L50.1787 87.3067L112.703 149.831L115.4 148.991C124.987 145.971 133.477 140.206 139.819 132.409C146.162 124.611 150.077 115.125 151.081 105.124L151.585 100H114V109.333H140.964C139.431 116.026 136.284 122.243 131.797 127.44C127.31 132.638 121.62 136.659 115.223 139.153L60.8467 84.7773ZM87.3627 149.971L50.0293 112.637L56.6373 106.029L93.9707 143.363L87.3627 149.971Z" fill="black"/>
</svg>
