<svg width="200" height="200" viewBox="0 0 200 200" fill="none" xmlns="http://www.w3.org/2000/svg">
<rect width="200" height="200" fill="white"/>
<path d="M100 87.3156C106.707 87.3156 112.177 92.7853 112.177 99.6225C112.177 106.134 106.707 111.669 100 111.669C93.293 111.669 87.8233 106.134 87.8233 99.6225C87.8233 92.7853 93.293 87.3156 100 87.3156ZM69.8512 151.716C73.9535 154.19 82.9395 150.413 93.293 140.646C89.907 136.804 86.586 132.636 83.4605 128.274C78.2131 127.772 72.9963 126.989 67.8326 125.93C64.5116 139.864 65.7488 149.436 69.8512 151.716ZM74.4744 114.339L72.586 111.018C71.8698 112.906 71.1535 114.795 70.6977 116.618C72.4558 117.009 74.4093 117.334 76.4279 117.66L74.4744 114.339ZM117.06 109.39L122.335 99.6225L117.06 89.8551C115.107 86.4039 113.023 83.3435 111.135 80.283C107.619 80.0877 103.907 80.0877 100 80.0877C96.093 80.0877 92.3814 80.0877 88.8651 80.283C86.9767 83.3435 84.893 86.4039 82.9395 89.8551L77.6651 99.6225L82.9395 109.39C84.893 112.841 86.9767 115.902 88.8651 118.962C92.3814 119.157 96.093 119.157 100 119.157C103.907 119.157 107.619 119.157 111.135 118.962C113.023 115.902 115.107 112.841 117.06 109.39ZM100 65.6318C98.7628 67.0644 97.4605 68.5621 96.1581 70.3202H103.842C102.54 68.5621 101.237 67.0644 100 65.6318ZM100 133.613C101.237 132.181 102.54 130.683 103.842 128.925H96.1581C97.4605 130.683 98.7628 132.181 100 133.613ZM130.084 47.5295C126.047 45.0551 117.06 48.8318 106.707 58.5993C110.093 62.4411 113.414 66.6086 116.54 70.9714C121.879 71.4923 127.153 72.2737 132.167 73.3156C135.488 59.3807 134.251 49.8086 130.084 47.5295ZM125.526 84.9063L127.414 88.2272C128.13 86.3388 128.847 84.4504 129.302 82.6272C127.544 82.2365 125.591 81.9109 123.572 81.5853L125.526 84.9063ZM134.967 38.9993C144.54 44.4691 145.581 58.8597 141.544 75.6597C158.084 80.5435 170 88.6179 170 99.6225C170 110.627 158.084 118.702 141.544 123.585C145.581 140.385 144.54 154.776 134.967 160.246C125.46 165.716 112.502 159.464 100 147.548C87.4977 159.464 74.5395 165.716 64.9674 160.246C55.4605 154.776 54.4186 140.385 58.4558 123.585C41.9163 118.702 30 110.627 30 99.6225C30 88.6179 41.9163 80.5435 58.4558 75.6597C54.4186 58.8597 55.4605 44.4691 64.9674 38.9993C74.5395 33.5295 87.4977 39.7807 100 51.697C112.502 39.7807 125.46 33.5295 134.967 38.9993ZM133.079 99.6225C135.293 104.506 137.247 109.39 138.874 114.339C152.549 110.236 160.233 104.376 160.233 99.6225C160.233 94.869 152.549 89.0086 138.874 84.9063C137.247 89.8551 135.293 94.7388 133.079 99.6225ZM66.9209 99.6225C64.707 94.7388 62.7535 89.8551 61.1256 84.9063C47.4512 89.0086 39.7674 94.869 39.7674 99.6225C39.7674 104.376 47.4512 110.236 61.1256 114.339C62.7535 109.39 64.707 104.506 66.9209 99.6225ZM125.526 114.339L123.572 117.66C125.591 117.334 127.544 117.009 129.302 116.618C128.847 114.795 128.13 112.906 127.414 111.018L125.526 114.339ZM106.707 140.646C117.06 150.413 126.047 154.19 130.084 151.716C134.251 149.436 135.488 139.864 132.167 125.93C127.153 126.971 121.879 127.753 116.54 128.274C113.414 132.636 110.093 136.804 106.707 140.646ZM74.4744 84.9063L76.4279 81.5853C74.4093 81.9109 72.4558 82.2365 70.6977 82.6272C71.1535 84.4504 71.8698 86.3388 72.586 88.2272L74.4744 84.9063ZM93.293 58.5993C82.9395 48.8318 73.9535 45.0551 69.8512 47.5295C65.7488 49.8086 64.5116 59.3807 67.8326 73.3156C72.9963 72.2561 78.2131 71.4736 83.4605 70.9714C86.586 66.6086 89.907 62.4411 93.293 58.5993Z" fill="black"/>
</svg>
