<svg width="200" height="200" viewBox="0 0 200 200" fill="none" xmlns="http://www.w3.org/2000/svg">
<rect width="200" height="200" fill="white"/>
<path d="M77.1934 88.9723L72.8447 102.854H87.3123L82.88 88.9723C82.0148 86.1235 81.2289 83.2511 80.5232 80.3587C80.3622 79.7172 80.2 79.0761 80.0367 78.4352H79.8694L79.0027 81.9704C78.4402 84.3272 77.8624 86.7752 77.1934 88.9723ZM124.952 91.9829C118.596 91.9829 115.92 97.7532 115.502 101.935H133.399C133.475 98.1713 131.802 91.9829 124.952 91.9829Z" fill="black"/>
<path fill-rule="evenodd" clip-rule="evenodd" d="M60.1226 32.1969C86.549 29.2677 113.218 29.2677 139.645 32.1969C154.082 33.8087 165.721 45.1744 167.416 59.6647C170.55 86.4608 170.55 113.531 167.416 140.327C165.721 154.817 154.082 166.183 139.652 167.802C113.223 170.733 86.5515 170.733 60.1226 167.802C45.6855 166.183 34.0461 154.817 32.3507 140.335C29.2164 113.536 29.2164 86.4634 32.3507 59.6647C34.0461 45.1744 45.6855 33.8087 60.1226 32.1969ZM94.1665 126.605L89.0729 110.632H71.1614L66.3186 126.605H55.698L73.7615 70.2398H86.891L105.213 126.605H94.1665ZM143.096 104.778C143.096 106.701 142.929 108.207 142.762 109.126H115.499C115.75 116.486 121.52 119.664 128.043 119.664C132.81 119.664 136.239 118.995 139.333 117.824L140.838 124.932C137.326 126.354 132.475 127.524 126.622 127.524C113.408 127.524 105.631 119.329 105.631 106.869C105.631 95.5789 112.489 84.9582 125.534 84.9582C138.831 84.9582 143.096 95.8297 143.096 104.778Z" fill="black"/>
</svg>
