<svg width="200" height="200" viewBox="0 0 200 200" fill="none" xmlns="http://www.w3.org/2000/svg">
<rect width="200" height="200" fill="white"/>
<path d="M86.9341 78.5833C84.7204 77.6858 82.3271 77.3268 79.874 77.3866C78.3184 77.3866 76.9423 77.3866 75.8055 77.4465C74.6088 77.3866 73.7712 77.4465 73.3524 77.5063V97.6097C74.19 97.6696 74.9678 97.7294 75.6858 97.7294H78.8569C81.1903 97.7294 83.5237 97.3704 85.7375 96.6524C87.6521 96.1139 89.3274 94.9771 90.6437 93.4813C91.9002 91.9856 92.4985 89.9513 92.4985 87.3187C92.5583 85.4639 92.0797 83.6091 91.1224 81.9937C90.1247 80.4402 88.6575 79.2455 86.9341 78.5833ZM146.167 30H53.4284C39.368 30 28 41.368 28 55.4284V144.572C28 158.632 39.368 170 53.4284 170H146.167C160.228 170 171.596 158.632 171.596 144.572V55.4284C171.596 41.368 160.228 30 146.167 30ZM101.946 99.7038C99.5586 103.054 96.208 105.567 92.319 107.003C88.2504 108.499 83.7631 109.038 78.8569 109.038C77.4209 109.038 76.4636 109.038 75.8653 108.978C75.267 108.918 74.4293 108.918 73.2925 108.918V128.118C73.3524 128.537 73.0532 128.902 72.6344 128.961H61.0271C60.5484 128.961 60.3091 128.716 60.3091 128.178V66.6169C60.3091 66.1981 60.4886 65.9588 60.9074 65.9588C61.9245 65.9588 62.8818 65.9588 64.258 65.899C65.6939 65.8391 67.1897 65.8391 68.8052 65.7793C70.4206 65.7195 72.1557 65.7195 74.0105 65.6596C75.8653 65.5998 77.6602 65.5998 79.4552 65.5998C84.3614 65.5998 88.4299 66.1981 91.7805 67.4546C94.7721 68.4717 97.5243 70.147 99.7979 72.3608C101.713 74.2754 103.208 76.6088 104.166 79.1816C105.057 81.6945 105.536 84.2673 105.536 86.9597C105.542 92.1052 104.345 96.3533 101.946 99.7038ZM144.373 122.978C142.697 125.372 140.358 127.22 137.671 128.309C134.74 129.56 131.15 130.212 126.836 130.212C124.09 130.212 121.391 129.979 118.705 129.44C116.611 129.075 114.517 128.423 112.602 127.526C112.183 127.292 111.878 126.873 111.938 126.395V115.984C111.938 115.81 112.004 115.565 112.183 115.446C112.357 115.326 112.542 115.386 112.722 115.505C115.055 116.881 117.508 117.845 120.141 118.437C122.408 119.035 124.802 119.335 127.201 119.335C129.474 119.335 131.09 119.029 132.167 118.491C133.124 118.072 133.782 117.055 133.782 115.978C133.782 115.134 133.304 114.363 132.346 113.585C131.389 112.813 129.421 111.915 126.489 110.767C123.437 109.69 120.631 108.254 117.993 106.465C116.121 105.124 114.566 103.388 113.44 101.379C112.489 99.4861 112.018 97.3881 112.069 95.2703C112.069 92.6975 112.787 90.2444 114.11 88.0307C115.605 85.6374 117.813 83.7228 120.386 82.5262C123.192 81.0962 126.722 80.438 130.97 80.438C133.423 80.438 135.936 80.6175 138.389 80.9765C140.184 81.2159 141.919 81.6945 143.535 82.3527C143.768 82.4125 144.014 82.6518 144.133 82.8911C144.193 83.1305 144.253 83.3698 144.253 83.6091V93.3617C144.253 93.601 144.133 93.8403 143.954 93.96C143.415 94.0797 143.116 94.0797 142.877 93.96C141.082 93.0027 139.167 92.3445 137.133 91.9257C134.919 91.4471 132.705 91.1479 130.432 91.1479C129.235 91.0881 127.979 91.2676 126.836 91.5667C126.064 91.7462 125.4 92.165 124.981 92.7634C124.682 93.242 124.502 93.8403 124.502 94.3788C124.502 94.9173 124.742 95.4558 125.107 95.9344C125.645 96.5926 126.357 97.1311 127.141 97.5499C128.511 98.2679 129.953 98.926 131.383 99.5243C134.62 100.601 137.731 102.097 140.603 103.892C142.578 105.143 144.193 106.824 145.324 108.858C146.281 110.761 146.76 112.867 146.7 115.015C146.766 117.833 145.928 120.639 144.373 122.978Z" fill="black"/>
</svg>
