<svg width="200" height="200" viewBox="0 0 200 200" fill="none" xmlns="http://www.w3.org/2000/svg">
<rect width="200" height="200" fill="white"/>
<path d="M87.7295 88.9723L83.3809 102.854H97.8484L93.4161 88.9723C92.5342 86.1974 91.7664 83.1488 91.0594 80.3587C90.8986 79.7172 90.7364 79.076 90.5728 78.4352H90.4056C90.1167 79.5528 89.8354 80.7464 89.5389 81.9704C88.9763 84.3272 88.3909 86.7752 87.7295 88.9723Z" fill="black"/>
<path fill-rule="evenodd" clip-rule="evenodd" d="M60.1226 32.1969C86.549 29.2677 113.218 29.2677 139.645 32.1969C154.082 33.8087 165.721 45.1744 167.416 59.6647C170.55 86.4608 170.55 113.531 167.416 140.327C165.721 154.817 154.082 166.183 139.652 167.802C113.223 170.733 86.5515 170.733 60.1226 167.802C45.6855 166.183 34.0461 154.817 32.3507 140.335C29.2164 113.536 29.2164 86.4634 32.3507 59.6647C34.0461 45.1744 45.6855 33.8087 60.1226 32.1969ZM129.777 85.8781V126.605H119.407V85.8781H129.777ZM118.829 74.5048C118.829 71.3269 121.163 68.9017 124.592 68.9017C128.112 68.9017 130.278 71.3269 130.37 74.5048C130.37 77.599 128.104 80.0242 124.516 80.0242C121.087 80.0242 118.829 77.599 118.829 74.5048ZM104.696 126.605L99.5947 110.632H81.7061L76.8557 126.605H66.235L84.2985 70.2398H97.428L115.742 126.605H104.696Z" fill="black"/>
</svg>
