<svg width="200" height="200" viewBox="0 0 200 200" fill="none" xmlns="http://www.w3.org/2000/svg">
<rect width="200" height="200" fill="white"/>
<path d="M141.323 77.4889C145.325 73.712 148.102 68.8211 149.294 63.4488C150.486 58.0766 150.038 52.4703 148.009 47.3552C145.98 42.2401 142.462 37.8517 137.912 34.7576C133.361 31.6635 127.986 30.0062 122.484 30H77.4941C71.9912 30.0062 66.6168 31.6635 62.0662 34.7576C57.5155 37.8517 53.9981 42.2401 51.9689 47.3552C49.9397 52.4703 49.4921 58.0766 50.6841 63.4488C51.876 68.8211 54.6527 73.712 58.6548 77.4889C55.859 80.1139 53.6446 83.296 52.1547 86.8298C50.6648 90.3635 49.9325 94.1704 50.0049 98.0048C50.0773 101.839 50.9529 105.616 52.5752 109.091C54.1975 112.566 56.5304 115.662 59.4233 118.179C55.8054 121.589 53.0916 125.844 51.5263 130.563C49.9609 135.281 49.5929 140.315 50.4554 145.211C51.318 150.107 53.384 154.712 56.4677 158.611C59.5513 162.511 63.5559 165.582 68.1212 167.55C72.6866 169.518 77.6694 170.32 82.6217 169.885C87.574 169.449 92.3403 167.789 96.4919 165.055C100.644 162.32 104.05 158.596 106.406 154.218C108.762 149.84 109.992 144.946 109.987 139.974V121.96C115.876 124.936 122.64 125.694 129.042 124.097C135.445 122.499 141.059 118.652 144.86 113.258C148.661 107.863 150.396 101.282 149.746 94.7151C149.097 88.1483 146.107 82.0341 141.323 77.4889ZM134.981 57.4936C134.981 60.808 133.664 63.9867 131.32 66.3303C128.977 68.674 125.798 69.9906 122.484 69.9906H109.987V44.9965H122.484C125.798 44.9965 128.977 46.3131 131.32 48.6568C133.664 51.0005 134.981 54.1791 134.981 57.4936ZM64.997 57.4936C64.997 54.1791 66.3137 51.0005 68.6573 48.6568C71.001 46.3131 74.1797 44.9965 77.4941 44.9965H94.99V69.9906H77.4941C74.1797 69.9906 71.001 68.674 68.6573 66.3303C66.3137 63.9867 64.997 60.808 64.997 57.4936ZM77.4941 109.981C74.1797 109.981 71.001 108.665 68.6573 106.321C66.3137 103.977 64.997 100.799 64.997 97.4842C64.997 94.1698 66.3137 90.9911 68.6573 88.6474C71.001 86.3038 74.1797 84.9871 77.4941 84.9871H94.99V109.981H77.4941ZM94.99 139.974C94.99 142.94 94.1105 145.84 92.4626 148.306C90.8148 150.772 88.4727 152.694 85.7324 153.829C82.9922 154.964 79.9769 155.261 77.0678 154.683C74.1588 154.104 71.4867 152.676 69.3894 150.578C67.2921 148.481 65.8638 145.809 65.2852 142.9C64.7065 139.991 65.0035 136.976 66.1386 134.235C67.2736 131.495 69.1958 129.153 71.6619 127.505C74.1281 125.857 77.0275 124.978 79.9935 124.978H94.99V139.974ZM122.484 109.981C120.012 109.981 117.596 109.248 115.541 107.875C113.485 106.502 111.884 104.55 110.938 102.267C109.992 99.9831 109.744 97.4704 110.227 95.0462C110.709 92.622 111.899 90.3952 113.647 88.6474C115.395 86.8997 117.621 85.7095 120.046 85.2273C122.47 84.7451 124.982 84.9925 127.266 85.9384C129.55 86.8843 131.501 88.4861 132.875 90.5412C134.248 92.5963 134.981 95.0125 134.981 97.4842C134.981 100.799 133.664 103.977 131.32 106.321C128.977 108.665 125.798 109.981 122.484 109.981Z" fill="black"/>
</svg>
